HIERARCHY
ROOT Hips
{
	OFFSET 0.00000 0.00000 0.00000
	CHANNELS 6 Xposition Yposition Zposition Yrotation Zrotation Xrotation 
	JOINT Lumbar
	{
		OFFSET 0 0 0
		CHANNELS 3 Zrotation Xrotation Yrotation
		JOINT Neck
		{
			OFFSET 0.00 0.2701 0.00
			CHANNELS 3 Zrotation Xrotation Yrotation
			End Site
			{
				OFFSET 0.00 0.1379 0.00
			}
		}
		JOINT RightShoulder
		{
			OFFSET 0.0119 0.2289 0.1181
			CHANNELS 3 Zrotation Xrotation Yrotation
			JOINT RightElbow
			{
				OFFSET 0.00 -0.1475 0.00
				CHANNELS 2 Zrotation Yrotation
				JOINT RightWrist
				{
					OFFSET 0.00 -0.1605 0.00
					CHANNELS 2 Zrotation Xrotation
					End Site
					{
						OFFSET 0.0040 -0.1068 0.0006
					}
				}
			}
		}
		JOINT LeftShoulder
		{
			OFFSET 0.0119 0.2289 -0.1181
			CHANNELS 3 Zrotation Xrotation Yrotation
			JOINT LeftElbow
			{
				OFFSET 0.00 -0.1475 0.00
				CHANNELS 2 Zrotation Yrotation
				JOINT LeftWrist
				{
					OFFSET 0.00 -0.1605 0.00
					CHANNELS 2 Zrotation Xrotation
					End Site
					{
						OFFSET 0.0040 -0.1068 -0.0006
					}
				}
			}
		}
	}
	JOINT RightHip
	{
		OFFSET 0.0316 -0.0424 0.0458
		CHANNELS 3 Zrotation Xrotation Yrotation
		JOINT RightKnee
		{
			OFFSET 0.00 -0.2438 0.00
			CHANNELS 1 Zrotation
			JOINT RightAnkle
			{
				OFFSET 0.00 -0.2449 0.00
				CHANNELS 3 Zrotation Xrotation Yrotation
				End Site
				{
					OFFSET 0.1237 -0.0542 0.0051
				}
			}
		}
	}
	JOINT LeftHip
	{
		OFFSET 0.0316 -0.0424 -0.0458
		CHANNELS 3 Zrotation Xrotation Yrotation
		JOINT LeftKnee
		{
			OFFSET 0.00 -0.2438 0.00
			CHANNELS 1 Zrotation
			JOINT LeftAnkle
			{
				OFFSET 0.00 -0.2449 0.00
				CHANNELS 3 Zrotation Xrotation Yrotation
				End Site
				{
					OFFSET 0.1237 -0.0542 -0.0051
				}
			}
		}
	}
}
MOTION
Frames: 14
Frame Time: 0.02
0.06472 0.02431 -0.16013 -159.31419 -36.90476 -0.5368 42.69998 4.54151 9.63438 11.46315 -0.16381 -2.09916 90.06213 16.20777 55.63205 59.31022 77.4512 8.28148 -4.98371 121.88128 35.69348 87.1388 5.79929 -82.77352 -11.07231 3.60767 43.98644 0.21937 -14.95154 -16.85658 -7.15113 -2.54678 -3.5064 42.78597 5.51872 7.54932 -23.01518 -6.95761 1.37636 2.93001
0.06504 0.02429 -0.16001 -159.50824 -36.90395 -0.56204 42.76167 4.56197 9.25622 11.41884 -0.15646 -2.09921 88.05095 16.22372 55.63663 59.88743 77.7807 8.52067 -5.18613 121.80982 36.19542 87.13996 5.7984 -82.69146 -11.24748 3.57025 44.03607 0.22125 -14.75714 -16.8652 -7.15432 -2.54947 -3.50546 42.80512 5.46746 7.46206 -23.03819 -6.94969 1.4022 2.9452
0.06531 0.02427 -0.15992 -159.74115 -36.91352 -0.59431 42.82534 4.57866 8.86114 11.40677 -0.1818 -2.09926 85.61427 16.21478 55.63365 60.56234 78.2209 8.89134 -5.3988 121.75978 36.73466 87.14007 5.7971 -82.57122 -11.44208 3.50929 44.09671 0.22809 -14.5717 -16.87609 -7.15655 -2.54874 -3.50191 42.82956 5.41692 7.34941 -23.06173 -6.94037 1.43329 2.96387
0.0656 0.02425 -0.15982 -159.95998 -36.91868 -0.62398 42.88723 4.59421 8.4683 11.37844 -0.18656 -2.09931 83.32223 16.18071 55.62506 61.21781 78.60843 9.1818 -5.58318 121.70664 37.26727 87.1398 5.79611 -82.47178 -11.62749 3.46032 44.15257 0.23198 -14.38787 -16.88582 -7.15897 -2.54813 -3.49896 42.85141 5.36732 7.25515 -23.08514 -6.93179 1.46206 2.98087
0.06589 0.02424 -0.15971 -160.16139 -36.92295 -0.65062 42.95273 4.62196 8.09643 11.36022 -0.22097 -2.09935 81.21589 16.30711 55.65968 61.78125 79.00599 9.55251 -5.86602 121.62454 37.75653 87.14009 5.79498 -82.3556 -11.81346 3.40571 44.2081 0.23837 -14.17932 -16.89624 -7.16251 -2.55383 -3.49861 42.87487 5.3124 7.13347 -23.10813 -6.92289 1.49015 2.99805
0.06617 0.02421 -0.15963 -160.40992 -36.93164 -0.68566 43.01115 4.62332 7.67707 11.32702 -0.19858 -2.0994 78.63008 16.08501 55.59621 62.55191 79.4086 9.79061 -5.94904 121.6091 38.34609 87.14007 5.79392 -82.26907 -12.00335 3.35836 44.26698 0.24108 -14.02452 -16.90569 -7.16349 -2.54543 -3.49216 42.89609 5.26886 7.06244 -23.13211 -6.91428 1.52113 3.01581
0.06641 0.02417 -0.15961 -160.77036 -36.94717 -0.73952 43.05034 4.55306 7.13745 11.24848 -0.02015 -2.09944 74.8172 14.97719 55.31657 63.90159 79.80181 9.61708 -5.44903 121.76186 39.18847 87.14017 5.79303 -82.23672 -12.19774 3.32406 44.32905 0.22992 -14.0185 -16.91196 -7.15724 -2.49946 -3.46984 42.90794 5.25521 7.13713 -23.15868 -6.90665 1.55774 3.03375
0.06665 0.02411 -0.15961 -161.17885 -36.96735 -0.80212 43.08221 4.45635 6.54958 11.15262 0.21881 -2.09949 70.54176 13.50594 54.928 65.44857 80.19531 9.30784 -4.75271 121.98304 40.13323 87.14026 5.7922 -82.24236 -12.39569 3.30014 44.39471 0.21529 -14.06645 -16.91715 -7.14853 -2.43923 -3.44137 42.91766 5.25339 7.26438 -23.18623 -6.89936 1.59724 3.05224
0.06688 0.02406 -0.15961 -161.57107 -36.98699 -0.8625 43.11693 4.37147 5.97993 11.06167 0.43659 -2.09953 66.48404 12.15533 54.5554 66.8844 80.58671 9.07131 -4.16495 122.17981 41.04051 87.14043 5.79137 -82.25457 -12.59329 3.27969 44.46062 0.20397 -14.08749 -16.92277 -7.14116 -2.38525 -3.41553 42.92936 5.24681 7.36647 -23.2133 -6.892 1.63624 3.0709
0.06712 0.02401 -0.1596 -161.94054 -36.99984 -0.91573 43.15371 4.28711 5.42587 10.98436 0.62668 -2.09958 62.37453 10.99342 54.32657 68.41719 80.99168 8.79641 -3.49603 122.34882 41.91023 87.14042 5.79042 -82.16439 -12.78665 3.22381 44.51849 0.18577 -14.11675 -16.92868 -7.13273 -2.3324 -3.39041 42.93662 5.23699 7.46953 -23.24047 -6.88426 1.67226 3.08807
0.06736 0.02395 -0.1596 -162.36904 -37.02844 -0.98583 43.18446 4.19564 4.82736 10.87418 0.88893 -2.09962 58.2748 9.3505 53.76944 69.79026 81.36524 8.56281 -2.94926 122.59195 42.88289 87.14054 5.78974 -82.29755 -12.98884 3.24459 44.59444 0.18066 -14.1443 -16.93375 -7.12603 -2.27351 -3.36222 42.95299 5.23754 7.58786 -23.26772 -6.87739 1.71476 3.10822
0.06759 0.02387 -0.15966 -162.94274 -37.09386 -1.10026 43.20017 4.08927 4.12481 10.67645 1.33892 -2.09968 54.26647 6.4854 52.35713 70.70067 81.66665 8.51718 -2.78892 123.01861 44.10673 87.14107 5.78978 -83.03101 -13.21901 3.47257 44.71386 0.21577 -14.12983 -16.93647 -7.1239 -2.20449 -3.32835 42.99114 5.25623 7.69516 -23.29457 -6.87302 1.77778 3.13829
0.06782 0.02379 -0.15974 -163.57523 -37.17592 -1.2313 43.2101 3.97703 3.37812 10.44634 1.85885 -2.09974 50.296 3.1461 50.61277 71.43752 81.9332 8.51016 -2.75803 123.51705 45.43169 87.14019 5.79011 -83.98752 -13.45656 3.77701 44.8523 0.26363 -14.11557 -16.93843 -7.12374 -2.12939 -3.29141 43.03925 5.28602 7.8222 -23.32155 -6.86951 1.84672 3.17106
0.06806 0.02371 -0.1598 -164.18449 -37.25394 -1.35478 43.22277 3.8686 2.64704 10.23144 2.34502 -2.0998 46.34149 0.01226 49.00533 72.2365 82.20545 8.45739 -2.66706 123.98686 46.71576 87.14191 5.79033 -84.84923 -13.68827 4.04887 44.98561 0.3034 -14.1178 -16.94092 -7.12321 -2.05496 -3.25499 43.08528 5.31611 7.96865 -23.34868 -6.86546 1.91056 3.20131
